Coordinates
version=1
nRows=16
nColumns=63
inDegrees=yes

Units are S.I. units (second, meters, Newtons, ...)
If the header above contains a line with 'inDegrees', this indicates whether rotational values are in degrees (yes) or radians (no).

endheader
time	pelvis_tilt	pelvis_list	pelvis_rotation	pelvis_tx	pelvis_ty	pelvis_tz	hip_flexion_r	hip_adduction_r	hip_rotation_r	knee_angle_r	knee_angle_r_beta	ankle_angle_r	subtalar_angle_r	mtp_angle_r	hip_flexion_l	hip_adduction_l	hip_rotation_l	knee_angle_l	knee_angle_l_beta	ankle_angle_l	subtalar_angle_l	mtp_angle_l	L5_S1_Flex_Ext	L5_S1_Lat_Bending	L5_S1_axial_rotation	L4_L5_Flex_Ext	L4_L5_Lat_Bending	L4_L5_axial_rotation	L3_L4_Flex_Ext	L3_L4_Lat_Bending	L3_L4_axial_rotation	L2_L3_Flex_Ext	L2_L3_Lat_Bending	L2_L3_axial_rotation	L1_L2_Flex_Ext	L1_L2_Lat_Bending	L1_L2_axial_rotation	L1_T12_Flex_Ext	L1_T12_Lat_Bending	L1_T12_axial_rotation	Abs_r3	Abs_r2	Abs_r1	Abs_t1	Abs_t2	neck_flexion	neck_bending	neck_rotation	arm_flex_r	arm_add_r	arm_rot_r	elbow_flex_r	pro_sup_r	wrist_flex_r	wrist_dev_r	arm_flex_l	arm_add_l	arm_rot_l	elbow_flex_l	pro_sup_l	wrist_flex_l	wrist_dev_l
1.888889	-0.724322	0.953293	101.371265	0.239373	0.921784	0.613577	-11.022901	-0.396313	9.256439	1.456280	0.025417	13.115773	-11.017863	0.000000	-4.134411	0.473792	-2.490201	12.416776	0.216714	21.076393	-0.289661	0.000000	-0.493322	-0.238204	0.248764	-0.916149	-0.316812	0.264312	-0.810479	-0.579170	0.264312	-0.563818	-0.579170	0.217669	-0.458099	-0.485746	0.202121	-0.281884	-0.368979	0.186573	-3.523752	-2.694616	1.383553	0.000000	0.000000	-10.023397	3.869092	-0.255461	61.444898	-3.990119	34.354969	84.851835	89.113442	-16.366085	8.506577	53.264706	-9.335551	38.050098	113.838261	55.262046	-8.988728	3.614913
1.911111	-0.714970	0.689445	101.425351	0.239395	0.921582	0.613735	-10.725370	-0.438455	9.145616	1.445091	0.025222	12.974165	-11.031800	0.000000	-3.766872	0.516288	-2.301369	12.544423	0.218941	20.889383	-0.456833	0.000000	-0.480998	-0.222088	0.262931	-0.893261	-0.295377	0.279364	-0.790231	-0.539984	0.279364	-0.549732	-0.539984	0.230065	-0.446654	-0.452881	0.213631	-0.274842	-0.344014	0.197198	-3.435717	-2.512301	1.462343	0.000000	0.000000	-10.164402	3.358022	0.359025	61.507296	-5.244070	29.481769	82.519425	89.015653	-16.209425	8.351557	51.929731	-10.591476	30.758515	113.377076	59.018232	-9.411085	3.848970
1.933333	-0.684164	0.404748	101.558575	0.239250	0.921449	0.614167	-10.388980	-0.450777	8.922247	1.441816	0.025164	12.764876	-11.067155	0.000000	-3.342501	0.538530	-2.111747	12.688007	0.221447	20.724951	-0.534555	0.000000	-0.468839	-0.202738	0.281509	-0.870681	-0.269642	0.299103	-0.770256	-0.492938	0.299103	-0.535836	-0.492938	0.246320	-0.435364	-0.413424	0.228726	-0.267895	-0.314042	0.211132	-3.348871	-2.293416	1.565668	0.000000	0.000000	-10.331878	2.798921	0.869108	61.191295	-6.631924	23.545846	80.043972	88.902447	-16.382931	7.471607	50.461070	-11.814769	22.708170	112.483923	63.838746	-10.338862	3.926667
1.955556	-0.629911	0.126408	101.769833	0.238934	0.921400	0.614935	-10.039174	-0.425855	8.591743	1.448606	0.025283	12.485452	-11.133366	0.000000	-2.880254	0.534606	-1.909335	12.859495	0.224441	20.606251	-0.535020	0.000000	-0.459089	-0.180073	0.299369	-0.852575	-0.239497	0.318079	-0.754238	-0.437829	0.318079	-0.524693	-0.437829	0.261948	-0.426310	-0.367204	0.243237	-0.262324	-0.278933	0.224527	-3.279230	-2.037020	1.665000	0.000000	0.000000	-10.556264	2.193800	1.258288	60.509571	-8.119687	17.170716	77.614509	88.797862	-16.705662	5.639304	48.943118	-12.964596	14.599911	111.233565	69.707910	-11.964250	3.617071
1.977778	-0.566350	-0.128594	102.051480	0.238484	0.921399	0.616049	-9.693338	-0.375017	8.131844	1.475790	0.025757	12.184483	-11.187872	0.000000	-2.400211	0.520991	-1.649823	13.065442	0.228035	20.530492	-0.538018	0.000000	-0.453443	-0.156755	0.308459	-0.842088	-0.208485	0.327737	-0.744961	-0.381135	0.327737	-0.518239	-0.381135	0.269901	-0.421067	-0.319656	0.250623	-0.259097	-0.242814	0.231344	-3.238895	-1.773248	1.715554	0.000000	0.000000	-10.848158	1.584599	1.560535	59.595609	-9.627200	11.057708	75.441929	88.711357	-17.022657	3.277014	47.554075	-14.041101	7.219917	109.737149	76.650870	-14.367152	2.816384
2.000000	-0.510747	-0.340753	102.413849	0.237937	0.921407	0.617469	-9.382293	-0.307311	7.514195	1.519895	0.026527	11.906614	-11.184768	0.000000	-1.926038	0.508537	-1.314673	13.314330	0.232379	20.504315	-0.558245	0.000000	-0.454899	-0.136369	0.290697	-0.844792	-0.181371	0.308866	-0.747353	-0.331567	0.308866	-0.519904	-0.331567	0.254360	-0.422419	-0.278083	0.236192	-0.259929	-0.211235	0.218023	-3.249295	-1.542632	1.616772	0.000000	0.000000	-11.192007	1.045683	1.859826	58.646541	-10.939673	5.877643	73.680583	88.640571	-17.296732	0.995614	46.514681	-15.008627	1.204435	108.163804	84.688764	-17.082290	1.811617
2.022222	-0.444827	-0.517151	102.854036	0.237245	0.921367	0.619112	-9.099388	-0.209163	6.761405	1.581700	0.027606	11.655851	-11.149730	0.000000	-1.454496	0.488492	-0.861935	13.601371	0.237389	20.514785	-0.665920	0.000000	-0.460738	-0.118247	0.234065	-0.855637	-0.157269	0.248694	-0.756947	-0.287506	0.248694	-0.526578	-0.287506	0.204807	-0.427842	-0.241130	0.190178	-0.263266	-0.183165	0.175549	-3.291007	-1.337636	1.301797	0.000000	0.000000	-11.588862	0.597486	2.161962	57.854591	-11.840482	2.229016	72.499445	88.593121	-17.477165	-0.734748	45.996843	-15.680085	-3.008175	106.661694	93.571863	-19.511067	1.330336
2.044444	-0.324572	-0.659376	103.334348	0.236296	0.921268	0.620901	-8.832576	-0.053973	5.901488	1.664721	0.029055	11.429859	-11.044594	0.000000	-0.984525	0.431116	-0.304362	13.924203	0.243023	20.552084	-0.916612	0.000000	-0.468619	-0.095754	0.132805	-0.870273	-0.127353	0.141105	-0.769895	-0.232816	0.141105	-0.535585	-0.232816	0.116204	-0.435160	-0.195262	0.107904	-0.267769	-0.148323	0.099603	-3.347301	-1.083189	0.738619	0.000000	0.000000	-12.029539	0.223482	2.524186	57.406710	-12.144499	0.593136	71.993267	88.577326	-17.444500	-1.779941	46.033996	-15.835144	-4.711236	105.211002	95.921944	-20.094544	0.725353
2.066667	-0.177082	-0.766538	103.878731	0.235129	0.921102	0.622762	-8.605303	0.139698	4.930276	1.749897	0.030541	11.252684	-10.871874	0.000000	-0.531861	0.353113	0.341907	14.268770	0.249037	20.601378	-1.254110	0.000000	-0.478387	-0.073349	-0.011635	-0.888412	-0.097555	-0.012362	-0.785941	-0.178342	-0.012362	-0.546748	-0.178342	-0.010180	-0.444230	-0.149574	-0.009453	-0.273350	-0.113618	-0.008726	-3.417067	-0.829743	-0.064710	0.000000	0.000000	-12.495002	-0.009278	2.888351	57.357639	-11.809003	1.115786	72.240419	88.598702	-17.223717	-2.130160	46.729895	-15.424282	-3.932113	103.838642	96.091369	-19.970014	0.647019
2.088889	0.012381	-0.817075	104.408579	0.233822	0.920883	0.624664	-8.418995	0.373991	3.965095	1.855222	0.032380	11.126884	-10.667544	0.000000	-0.125135	0.255389	1.106040	14.632376	0.255383	20.644688	-1.843789	0.000000	-0.491711	-0.048182	-0.173162	-0.913157	-0.064082	-0.183985	-0.807832	-0.117150	-0.183985	-0.561977	-0.117150	-0.151517	-0.456603	-0.098253	-0.140694	-0.280964	-0.074634	-0.129872	-3.512243	-0.545048	-0.963077	0.000000	0.000000	-12.953053	-0.112994	3.172375	57.697734	-10.958869	3.681964	73.291102	88.660157	-16.709484	-1.735025	47.957245	-14.453462	-1.069274	102.697519	93.814199	-19.599346	2.337581
2.111111	0.218457	-0.797876	104.920419	0.232492	0.920666	0.626600	-8.288794	0.631655	3.023237	1.980518	0.034567	11.072832	-10.423368	0.000000	0.214728	0.139967	1.894326	15.003949	0.261868	20.697982	-2.533591	0.000000	-0.510007	-0.023927	-0.336208	-0.947134	-0.031823	-0.357221	-0.837891	-0.058176	-0.357221	-0.582887	-0.058176	-0.294182	-0.473593	-0.048792	-0.273169	-0.291418	-0.037063	-0.252156	-3.642931	-0.270667	-1.869886	0.000000	0.000000	-13.393965	-0.074605	3.265714	58.334817	-9.793472	8.011913	75.045291	88.764688	-15.978132	-1.161712	49.670397	-13.089253	3.760118	101.754925	89.014524	-18.467234	5.003195
2.133333	0.411569	-0.697346	105.394461	0.231297	0.920522	0.628565	-8.226040	0.888527	2.148836	2.127420	0.037130	11.099542	-10.157176	0.000000	0.464358	0.017180	2.621932	15.365194	0.268173	20.775299	-3.207533	0.000000	-0.535642	-0.003750	-0.476286	-0.994740	-0.004987	-0.506054	-0.880005	-0.009117	-0.506054	-0.612185	-0.009117	-0.416750	-0.497397	-0.007646	-0.386983	-0.306066	-0.005808	-0.357215	-3.826034	-0.042417	-2.648961	0.000000	0.000000	-13.803690	0.105384	3.066101	59.137850	-8.571092	13.629345	77.310093	88.934803	-14.925653	-0.996783	51.774387	-11.507542	9.896780	100.984855	89.068947	-16.986053	7.614527
2.155556	0.595909	-0.534474	105.812141	0.230245	0.920492	0.630480	-8.212401	1.141364	1.364504	2.291881	0.040001	11.201524	-9.858460	0.000000	0.627189	-0.115940	3.261200	15.686017	0.273773	20.874308	-3.827934	0.000000	-0.566383	0.015103	-0.587826	-1.051830	0.020087	-0.624565	-0.930511	0.036721	-0.624565	-0.647319	0.036721	-0.514348	-0.525943	0.030798	-0.477609	-0.323631	0.023394	-0.440870	-4.045617	0.170847	-3.269313	0.000000	0.000000	-14.177095	0.352675	2.636214	59.959089	-7.453899	19.935727	79.769634	89.237497	-13.359586	-1.676389	53.935146	-9.915721	16.835826	100.497581	89.248619	-15.299791	9.618151
2.177778	0.757048	-0.355982	106.158653	0.229393	0.920555	0.632222	-8.210237	1.365228	0.682801	2.466502	0.043049	11.381534	-9.515652	0.000000	0.726606	-0.240614	3.775037	15.932243	0.278070	20.980712	-4.342416	0.000000	-0.597075	0.031518	-0.667525	-1.108827	0.041919	-0.709246	-0.980934	0.076632	-0.709246	-0.682396	0.076632	-0.584085	-0.554443	0.064271	-0.542364	-0.341168	0.048821	-0.500644	-4.264844	0.356536	-3.712576	0.000000	0.000000	-14.502269	0.606536	2.030579	60.656200	-6.530808	26.261937	82.143608	89.467877	-11.508689	-3.035601	55.865269	-8.529044	23.882863	100.367374	89.344403	-14.069341	10.262724
2.200000	0.898372	-0.204966	106.439205	0.228737	0.920642	0.633697	-8.184904	1.555977	0.117304	2.640192	0.046080	11.628196	-9.151355	0.000000	0.802646	-0.359693	4.113613	16.104768	0.281081	21.108836	-4.654463	0.000000	-0.624028	0.046550	-0.724711	-1.158882	0.061912	-0.770006	-1.025216	0.113182	-0.770006	-0.713202	0.113182	-0.634122	-0.579472	0.094925	-0.588828	-0.356570	0.072106	-0.543533	-4.457370	0.526584	-4.030626	0.000000	0.000000	-14.738338	0.797463	1.375304	61.219855	-5.822053	31.976640	84.155397	89.417452	-9.769690	-4.382557	57.284822	-7.439622	30.003307	100.736809	89.199668	-13.340725	9.932793
2.222222	1.015892	-0.120053	106.649844	0.228292	0.920695	0.634842	-8.101554	1.700674	-0.357331	2.811652	0.049073	11.953219	-8.725810	0.000000	0.885837	-0.465244	4.255611	16.196841	0.282688	21.247522	-4.716801	0.000000	-0.645320	0.060324	-0.768848	-1.198423	0.080231	-0.816901	-1.060196	0.146672	-0.816901	-0.737536	0.146672	-0.672742	-0.599244	0.123013	-0.624689	-0.368736	0.093442	-0.576636	-4.609455	0.682398	-4.276103	0.000000	0.000000	-14.839929	0.879000	0.819264	61.725425	-5.367684	36.517695	85.545226	89.204079	-8.340584	-5.040108	58.092000	-6.751036	34.371136	101.521475	89.002786	-13.562318	9.180023
